<svg version="1.1" id="Layer_1" xmlns="http://www.w3.org/2000/svg" xmlns:xlink="http://www.w3.org/1999/xlink" x="0px" y="0px" viewBox="0 0 38.2 38" style="enable-background:new 0 0 38.2 38;" xml:space="preserve">
 <style type="text/css">
  .st0{fill:#FFA30F;}
	.st1{fill:#149EF2;}
	.st2{fill:#F20057;}
	.st3{fill:#8252DE;}
 </style>
 <g>
  <path class="st0" d="M25.6,8.5c4.1,0,7.8,1.8,10.3,4.6c0.8,1,2.4,0.3,2.3-1c-0.1-0.8-0.2-1.7-0.5-2.5c-1.3-4.5-4.9-8-9.4-9.2
		C19.2-1.9,11,4.9,11,13.6c0,0.6,0,1.1,0.1,1.7c0.2,1.3,1.9,1.6,2.5,0.5C15.9,11.4,20.4,8.5,25.6,8.5z">
  </path>
  <path class="st1" d="M8.6,12.5c0-4.1,1.8-7.7,4.6-10.2c1-0.8,0.3-2.4-1-2.3c-0.8,0.1-1.7,0.2-2.5,0.5c-4.5,1.3-8,4.9-9.2,9.4
		C-1.9,18.9,4.9,27,13.6,27c0.6,0,1.1,0,1.7-0.1c1.3-0.2,1.6-1.8,0.5-2.5C11.5,22.2,8.6,17.7,8.6,12.5z">
  </path>
  <path class="st2" d="M12.6,29.5c-4.1,0-7.8-1.8-10.3-4.6c-0.8-1-2.4-0.3-2.3,1c0.1,0.8,0.2,1.7,0.5,2.5c1.3,4.5,4.9,8,9.4,9.2
		c9.1,2.4,17.3-4.4,17.3-13.1c0-0.6,0-1.1-0.1-1.7c-0.2-1.3-1.9-1.6-2.5-0.5C22.3,26.6,17.8,29.5,12.6,29.5z">
  </path>
  <path class="st3" d="M29.6,25.5c0,4.1-1.8,7.7-4.6,10.2c-1,0.8-0.3,2.4,1,2.3c0.8-0.1,1.7-0.2,2.5-0.5c4.5-1.3,8-4.9,9.2-9.4
		C40,19.1,33.2,11,24.5,11c-0.6,0-1.1,0-1.7,0.1c-1.3,0.2-1.6,1.8-0.5,2.5C26.7,15.8,29.6,20.3,29.6,25.5z">
  </path>
 </g>
</svg>